<svg xmlns="http://www.w3.org/2000/svg" width="36" height="36" viewBox="-4 -4 36 36">
    <g fill="none" fill-rule="evenodd">
        <g fill-rule="nonzero">
            <g>
                <g>
                    <path 
                      fill="#E76A25" 
                      d="M14.888.397c-21.28.952-13.141 24.286-13.141 24.286 1.866-2.024 7.821-6.826 16.198-6.866h.04c4.05 0 6.432 3.413 5.519 6.826 0 0 6.273-7.381 2.779-15.754-1.151-2.778-4.288-4.881-7.98-4.881-1.231 0-2.541.238-3.851.754-3.057 1.23-3.494 4.008-2.859 5.317.476.953 1.39 1.39 2.342 1.39.16 0 .318 0 .517-.04 3.096-.477 4.327-1.905 5.042-1.905.119 0 .198.04.278.08.436.356.04 1.785-3.93 3.372-.954.397-2.7.834-4.447.834-2.025 0-4.01-.596-4.646-2.66-1.23-3.769 3.216-8.293 9.886-8.809.318-.04.794-.04 1.112-.04 3.375 0 5.836 1.509 7.027 2.54C23.384 2.54 20.486.397 15.801.317c0 .12-.397.08-.913.08" 
                      transform="translate(-85 -85) translate(85 15) translate(0 70)"
                    />
                </g>
            </g>
        </g>
    </g>
</svg>
